<svg xmlns="http://www.w3.org/2000/svg" width="760" height="420" font-family="ui-monospace,Menlo,Consolas,monospace" role="img" aria-label="Project showcase">
<defs>
<linearGradient id="grad" x1="0" y1="0" x2="0" y2="1"><stop offset="0" stop-color="#0F172A"/><stop offset="1" stop-color="#1E293B"/></linearGradient>
<filter id="glow"><feGaussianBlur stdDeviation="3"/></filter>
</defs>
<rect x="2" y="2" width="756" height="416" rx="14" fill="#0F172A"/>
<rect x="2" y="2" width="756" height="42" rx="14" fill="#1E293B"/>
<circle cx="22" cy="20" r="4" fill="#EF4444"/><circle cx="34" cy="20" r="4" fill="#FBBF24"/><circle cx="46" cy="20" r="4" fill="#22C55E"/>
<text x="380" y="27" text-anchor="middle" font-size="14" fill="#E2E8F0">Projects</text>
<rect x="18" y="54" width="724" height="36" rx="8" fill="#1E293B" stroke="#10B981" stroke-width="1.2" opacity="0.95"/>
<text x="30" y="72" font-size="13" fill="#10B981">CyberMax-01/profile</text>
<text x="30" y="88" font-size="11" fill="#94A3B8">Hacker-themed GitHub profile with animated SVG banner</text>
<text x="732" y="80" text-anchor="end" font-size="11" fill="#94A3B8">★ 0 · ⑂ 0 · HTML</text>
<rect x="18" y="100" width="724" height="36" rx="8" fill="#1E293B" stroke="#A78BFA" stroke-width="1.2" opacity="0.95"/>
<text x="30" y="118" font-size="13" fill="#A78BFA">mern-auth-starter</text>
<text x="30" y="134" font-size="11" fill="#94A3B8">Minimal MERN auth with email/password, Google &amp; GitHub OAuth</text>
<text x="732" y="126" text-anchor="end" font-size="11" fill="#94A3B8">★ 0 · ⑂ 0 · JavaScript</text>
<rect x="18" y="146" width="724" height="36" rx="8" fill="#1E293B" stroke="#22D3EE" stroke-width="1.2" opacity="0.95"/>
<text x="30" y="164" font-size="13" fill="#22D3EE">VideoTube</text>
<text x="30" y="180" font-size="11" fill="#94A3B8">Video sharing platform</text>
<text x="732" y="172" text-anchor="end" font-size="11" fill="#94A3B8">★ 0 · ⑂ 0 · JavaScript</text>
</svg>
